# Blender 4.1.1
# www.blender.org
mtllib 銀コイン.mtl
o Cube
v -0.077421 0.945904 1.711535
v 0.039227 0.934770 1.707239
v -0.084211 0.927729 1.527123
v 0.032517 0.916808 1.524998
v -0.090741 0.873901 1.349798
v 0.026064 0.863614 1.349761
v -0.096759 0.786490 1.186374
v 0.020117 0.777232 1.188261
v -0.102033 0.668855 1.043132
v 0.014904 0.660982 1.046705
v -0.106362 0.525516 0.925577
v 0.010626 0.519330 0.930533
v -0.109579 0.361982 0.838225
v 0.007447 0.357721 0.844209
v -0.111560 0.184537 0.784434
v 0.005490 0.182365 0.791052
v -0.112229 -0.000000 0.766271
v 0.004829 -0.000000 0.773102
v -0.111560 -0.184537 0.784434
v 0.005490 -0.182365 0.791052
v -0.109579 -0.361982 0.838225
v 0.007447 -0.357721 0.844209
v -0.106362 -0.525516 0.925577
v 0.010626 -0.519330 0.930533
v -0.102033 -0.668855 1.043132
v 0.014904 -0.660982 1.046705
v -0.096759 -0.786490 1.186374
v 0.020117 -0.777233 1.188261
v -0.090741 -0.873901 1.349798
v 0.026064 -0.863615 1.349761
v -0.084211 -0.927729 1.527123
v 0.032517 -0.916808 1.524998
v -0.077421 -0.945904 1.711535
v 0.039227 -0.934770 1.707239
v -0.070630 -0.927729 1.895946
v 0.045938 -0.916808 1.889480
v -0.064100 -0.873901 2.073271
v 0.052391 -0.863615 2.064718
v -0.058082 -0.786490 2.236695
v 0.058338 -0.777233 2.226218
v -0.052808 -0.668855 2.379937
v 0.063551 -0.660982 2.367774
v -0.048479 -0.525516 2.497493
v 0.067828 -0.519330 2.483946
v -0.045262 -0.361982 2.584844
v 0.071007 -0.357721 2.570269
v -0.043281 -0.184537 2.638635
v 0.072965 -0.182365 2.623427
v -0.042613 -0.000000 2.656798
v 0.073625 -0.000000 2.641376
v -0.043281 0.184537 2.638635
v 0.072965 0.182364 2.623427
v -0.045262 0.361982 2.584844
v 0.071007 0.357721 2.570269
v -0.048479 0.525516 2.497493
v 0.067828 0.519330 2.483946
v -0.052808 0.668855 2.379937
v 0.063551 0.660982 2.367774
v -0.058082 0.786490 2.236695
v 0.058338 0.777232 2.226218
v -0.064100 0.873901 2.073271
v 0.052391 0.863614 2.064718
v -0.070630 0.927729 1.895946
v 0.045938 0.916808 1.889480
v -0.077421 1.000000 1.711535
v -0.084600 0.980785 1.516576
v -0.091503 0.923879 1.329110
v -0.097865 0.831469 1.156341
v -0.103441 0.707106 1.004907
v -0.108018 0.555570 0.880628
v -0.111418 0.382683 0.788281
v -0.113512 0.195090 0.731414
v -0.114219 -0.000000 0.712212
v -0.113512 -0.195090 0.731414
v -0.111418 -0.382683 0.788281
v -0.108018 -0.555570 0.880628
v -0.103441 -0.707107 1.004907
v -0.097865 -0.831469 1.156341
v -0.091503 -0.923879 1.329110
v -0.084600 -0.980785 1.516576
v -0.077421 -1.000000 1.711535
v -0.070242 -0.980785 1.906493
v -0.063338 -0.923879 2.093959
v -0.056977 -0.831469 2.266729
v -0.051400 -0.707107 2.418162
v -0.046824 -0.555570 2.542441
v -0.043423 -0.382683 2.634788
v -0.041329 -0.195090 2.691656
v -0.040622 -0.000000 2.710857
v -0.041329 0.195090 2.691656
v -0.043423 0.382683 2.634788
v -0.046824 0.555570 2.542441
v -0.051400 0.707106 2.418162
v -0.056977 0.831469 2.266729
v -0.063338 0.923879 2.093959
v -0.070242 0.980785 1.906493
v -0.077421 0.945904 1.711535
v -0.084211 0.927729 1.527123
v -0.090741 0.873901 1.349798
v -0.096759 0.786490 1.186374
v -0.102033 0.668855 1.043132
v -0.106362 0.525516 0.925577
v -0.109579 0.361982 0.838225
v -0.111560 0.184537 0.784434
v -0.112229 -0.000000 0.766271
v -0.111560 -0.184537 0.784434
v -0.109579 -0.361982 0.838225
v -0.106362 -0.525516 0.925577
v -0.102033 -0.668855 1.043132
v -0.096759 -0.786490 1.186374
v -0.090741 -0.873901 1.349798
v -0.084211 -0.927729 1.527123
v -0.077421 -0.945904 1.711535
v -0.070630 -0.927729 1.895946
v -0.064100 -0.873901 2.073271
v -0.058082 -0.786490 2.236695
v -0.052808 -0.668855 2.379937
v -0.048479 -0.525516 2.497493
v -0.045262 -0.361982 2.584844
v -0.043281 -0.184537 2.638635
v -0.042613 -0.000000 2.656798
v -0.043281 0.184537 2.638635
v -0.045262 0.361982 2.584844
v -0.048479 0.525516 2.497493
v -0.052808 0.668855 2.379937
v -0.058082 0.786490 2.236695
v -0.064100 0.873901 2.073271
v -0.070630 0.927729 1.895946
v -0.035933 0.945904 1.710007
v -0.042724 0.927729 1.525595
v -0.049254 0.873901 1.348270
v -0.055271 0.786490 1.184846
v -0.060546 0.668855 1.041605
v -0.064875 0.525516 0.924049
v -0.068092 0.361982 0.836697
v -0.070072 0.184537 0.782906
v -0.070741 -0.000000 0.764743
v -0.070072 -0.184537 0.782906
v -0.068092 -0.361982 0.836697
v -0.064875 -0.525516 0.924049
v -0.060546 -0.668855 1.041605
v -0.055271 -0.786490 1.184846
v -0.049254 -0.873901 1.348270
v -0.042724 -0.927729 1.525595
v -0.035933 -0.945904 1.710007
v -0.029142 -0.927729 1.894419
v -0.022613 -0.873901 2.071743
v -0.016595 -0.786490 2.235167
v -0.011320 -0.668855 2.378409
v -0.006991 -0.525516 2.495965
v -0.003775 -0.361982 2.583317
v -0.001794 -0.184537 2.637107
v -0.001125 -0.000000 2.655271
v -0.001794 0.184537 2.637107
v -0.003775 0.361982 2.583317
v -0.006991 0.525516 2.495965
v -0.011320 0.668855 2.378409
v -0.016595 0.786490 2.235167
v -0.022613 0.873901 2.071743
v -0.029142 0.927729 1.894419
v 0.032048 0.980785 1.512281
v 0.039227 1.000000 1.707239
v 0.025145 0.923879 1.324815
v 0.018783 0.831469 1.152045
v 0.013207 0.707106 1.000611
v 0.008630 0.555570 0.876333
v 0.005230 0.382683 0.783985
v 0.003136 0.195090 0.727118
v 0.002429 -0.000000 0.707917
v 0.003136 -0.195090 0.727118
v 0.005230 -0.382683 0.783985
v 0.008630 -0.555570 0.876333
v 0.013207 -0.707107 1.000611
v 0.018783 -0.831469 1.152045
v 0.025145 -0.923879 1.324815
v 0.032048 -0.980785 1.512281
v 0.039227 -1.000000 1.707239
v 0.046406 -0.980785 1.902197
v 0.053310 -0.923879 2.089664
v 0.059672 -0.831469 2.262433
v 0.065248 -0.707107 2.413867
v 0.069824 -0.555570 2.538146
v 0.073225 -0.382683 2.630493
v 0.075319 -0.195090 2.687360
v 0.076026 -0.000000 2.706562
v 0.075319 0.195090 2.687360
v 0.073225 0.382683 2.630493
v 0.069824 0.555570 2.538146
v 0.065248 0.707106 2.413867
v 0.059672 0.831469 2.262433
v 0.053310 0.923879 2.089664
v 0.046406 0.980785 1.902197
v -0.004612 0.934770 1.708853
v -0.011323 0.916808 1.526613
v -0.017776 0.863614 1.351375
v -0.023723 0.777232 1.189875
v -0.028936 0.660982 1.048319
v -0.033214 0.519330 0.932147
v -0.036392 0.357721 0.845824
v -0.038350 0.182365 0.792666
v -0.039011 -0.000000 0.774717
v -0.038350 -0.182365 0.792666
v -0.036392 -0.357721 0.845824
v -0.033214 -0.519330 0.932147
v -0.028936 -0.660982 1.048319
v -0.023723 -0.777233 1.189875
v -0.017776 -0.863615 1.351375
v -0.011323 -0.916808 1.526613
v -0.004612 -0.934770 1.708853
v 0.002098 -0.916808 1.891095
v 0.008551 -0.863615 2.066332
v 0.014498 -0.777233 2.227832
v 0.019711 -0.660982 2.369388
v 0.023989 -0.519330 2.485560
v 0.027167 -0.357721 2.571883
v 0.029125 -0.182365 2.625041
v 0.029786 -0.000000 2.642990
v 0.029125 0.182364 2.625041
v 0.027167 0.357721 2.571883
v 0.023989 0.519330 2.485560
v 0.019711 0.660982 2.369388
v 0.014498 0.777232 2.227832
v 0.008551 0.863614 2.066332
v 0.002098 0.916808 1.891095
vn -0.0036 0.9952 -0.0980
vn -0.0107 0.9569 -0.2901
vn -0.0173 0.8819 -0.4711
vn -0.0233 0.7730 -0.6340
vn -0.0284 0.6344 -0.7725
vn -0.0325 0.4714 -0.8813
vn -0.0352 0.2903 -0.9563
vn -0.0366 0.0980 -0.9945
vn -0.0366 -0.0980 -0.9945
vn -0.0352 -0.2903 -0.9563
vn -0.0325 -0.4714 -0.8813
vn -0.0284 -0.6344 -0.7725
vn -0.0233 -0.7730 -0.6340
vn -0.0173 -0.8819 -0.4711
vn -0.0107 -0.9569 -0.2901
vn -0.0036 -0.9952 -0.0980
vn 0.0036 -0.9952 0.0980
vn 0.0107 -0.9569 0.2901
vn 0.0173 -0.8819 0.4711
vn 0.0233 -0.7730 0.6340
vn 0.0284 -0.6344 0.7725
vn 0.0325 -0.4714 0.8813
vn 0.0352 -0.2903 0.9563
vn 0.0366 -0.0980 0.9945
vn 0.0366 0.0980 0.9945
vn 0.0352 0.2903 0.9563
vn 0.0325 0.4714 0.8813
vn 0.0284 0.6344 0.7725
vn 0.0233 0.7730 0.6340
vn 0.0173 0.8819 0.4711
vn 0.0107 0.9569 0.2901
vn 0.0036 0.9952 0.0980
vn -0.0000 -0.0000 1.0000
vn -0.9993 -0.0000 0.0368
vn 0.9993 -0.0000 -0.0368
vt 1.000000 0.500000
vt 1.000000 1.000000
vt 0.968750 1.000000
vt 0.968750 0.500000
vt 0.937500 1.000000
vt 0.937500 0.500000
vt 0.906250 1.000000
vt 0.906250 0.500000
vt 0.875000 1.000000
vt 0.875000 0.500000
vt 0.843750 1.000000
vt 0.843750 0.500000
vt 0.812500 1.000000
vt 0.812500 0.500000
vt 0.781250 1.000000
vt 0.781250 0.500000
vt 0.750000 1.000000
vt 0.750000 0.500000
vt 0.718750 1.000000
vt 0.718750 0.500000
vt 0.687500 1.000000
vt 0.687500 0.500000
vt 0.656250 1.000000
vt 0.656250 0.500000
vt 0.625000 1.000000
vt 0.625000 0.500000
vt 0.593750 1.000000
vt 0.593750 0.500000
vt 0.562500 1.000000
vt 0.562500 0.500000
vt 0.531250 1.000000
vt 0.531250 0.500000
vt 0.500000 1.000000
vt 0.500000 0.500000
vt 0.468750 1.000000
vt 0.468750 0.500000
vt 0.437500 1.000000
vt 0.437500 0.500000
vt 0.406250 1.000000
vt 0.406250 0.500000
vt 0.375000 1.000000
vt 0.375000 0.500000
vt 0.343750 1.000000
vt 0.343750 0.500000
vt 0.312500 1.000000
vt 0.312500 0.500000
vt 0.281250 1.000000
vt 0.281250 0.500000
vt 0.250000 1.000000
vt 0.250000 0.500000
vt 0.218750 1.000000
vt 0.218750 0.500000
vt 0.187500 1.000000
vt 0.187500 0.500000
vt 0.156250 1.000000
vt 0.156250 0.500000
vt 0.125000 1.000000
vt 0.125000 0.500000
vt 0.093750 1.000000
vt 0.093750 0.500000
vt 0.062500 1.000000
vt 0.062500 0.500000
vt 0.164147 0.457267
vt 0.125361 0.436536
vt 0.031250 1.000000
vt 0.031250 0.500000
vt 0.000000 1.000000
vt 0.000000 0.500000
vt 0.977017 0.250000
vt 0.972655 0.205711
vt 0.794289 0.472655
vt 0.749999 0.477017
vt 0.750000 0.490000
vt 0.796822 0.485388
vt 0.836875 0.459736
vt 0.841844 0.471731
vt 0.876123 0.438758
vt 0.883337 0.449553
vt 0.910525 0.410525
vt 0.919706 0.419706
vt 0.938757 0.376124
vt 0.949553 0.383337
vt 0.959736 0.336876
vt 0.971731 0.341844
vt 0.972655 0.294289
vt 0.985388 0.296822
vt 0.990000 0.250000
vt 0.985388 0.203178
vt 0.959736 0.163124
vt 0.971731 0.158156
vt 0.938757 0.123876
vt 0.949553 0.116663
vt 0.910525 0.089475
vt 0.919706 0.080294
vt 0.876124 0.061242
vt 0.883337 0.050447
vt 0.836875 0.040264
vt 0.841844 0.028269
vt 0.794289 0.027345
vt 0.796822 0.014612
vt 0.750000 0.022983
vt 0.750000 0.010000
vt 0.705711 0.027345
vt 0.703178 0.014612
vt 0.663124 0.040264
vt 0.658156 0.028269
vt 0.623876 0.061242
vt 0.616663 0.050447
vt 0.589475 0.089475
vt 0.580294 0.080294
vt 0.561242 0.123876
vt 0.550447 0.116663
vt 0.540264 0.163124
vt 0.528269 0.158156
vt 0.527345 0.205711
vt 0.514612 0.203178
vt 0.522983 0.250000
vt 0.510000 0.250000
vt 0.527345 0.294289
vt 0.514612 0.296822
vt 0.540264 0.336876
vt 0.528269 0.341844
vt 0.561242 0.376124
vt 0.550447 0.383337
vt 0.589475 0.410525
vt 0.580294 0.419706
vt 0.623876 0.438758
vt 0.616663 0.449553
vt 0.663124 0.459736
vt 0.658156 0.471731
vt 0.705711 0.472655
vt 0.703178 0.485388
vt 0.250000 0.474345
vt 0.293768 0.470034
vt 0.296822 0.485388
vt 0.250000 0.490000
vt 0.335853 0.457268
vt 0.341844 0.471731
vt 0.374639 0.436536
vt 0.383337 0.449553
vt 0.408636 0.408636
vt 0.419706 0.419706
vt 0.436536 0.374639
vt 0.449553 0.383337
vt 0.457268 0.335853
vt 0.471731 0.341844
vt 0.470034 0.293768
vt 0.485388 0.296822
vt 0.474345 0.250000
vt 0.490000 0.250000
vt 0.470034 0.206233
vt 0.485388 0.203178
vt 0.457268 0.164147
vt 0.471731 0.158156
vt 0.436536 0.125361
vt 0.449553 0.116663
vt 0.408636 0.091364
vt 0.419706 0.080294
vt 0.374639 0.063464
vt 0.383337 0.050447
vt 0.335853 0.042732
vt 0.341844 0.028269
vt 0.293768 0.029966
vt 0.296822 0.014612
vt 0.250000 0.025655
vt 0.250000 0.010000
vt 0.206233 0.029966
vt 0.203178 0.014612
vt 0.164147 0.042732
vt 0.158156 0.028269
vt 0.125361 0.063464
vt 0.116663 0.050447
vt 0.091364 0.091364
vt 0.080294 0.080294
vt 0.063464 0.125361
vt 0.050447 0.116663
vt 0.042732 0.164147
vt 0.028269 0.158156
vt 0.029966 0.206232
vt 0.014612 0.203178
vt 0.025655 0.250000
vt 0.010000 0.250000
vt 0.029966 0.293768
vt 0.014612 0.296822
vt 0.042732 0.335853
vt 0.028269 0.341844
vt 0.063464 0.374639
vt 0.050447 0.383337
vt 0.091364 0.408636
vt 0.080294 0.419706
vt 0.116663 0.449553
vt 0.158156 0.471731
vt 0.206233 0.470034
vt 0.203178 0.485388
s 0
usemtl マテリアル
f 65/1/1 162/2/1 161/3/1 66/4/1
f 66/4/2 161/3/2 163/5/2 67/6/2
f 67/6/3 163/5/3 164/7/3 68/8/3
f 68/8/4 164/7/4 165/9/4 69/10/4
f 69/10/5 165/9/5 166/11/5 70/12/5
f 70/12/6 166/11/6 167/13/6 71/14/6
f 71/14/7 167/13/7 168/15/7 72/16/7
f 72/16/8 168/15/8 169/17/8 73/18/8
f 73/18/9 169/17/9 170/19/9 74/20/9
f 74/20/10 170/19/10 171/21/10 75/22/10
f 75/22/11 171/21/11 172/23/11 76/24/11
f 76/24/12 172/23/12 173/25/12 77/26/12
f 77/26/13 173/25/13 174/27/13 78/28/13
f 78/28/14 174/27/14 175/29/14 79/30/14
f 79/30/15 175/29/15 176/31/15 80/32/15
f 80/32/16 176/31/16 177/33/16 81/34/16
f 81/34/17 177/33/17 178/35/17 82/36/17
f 82/36/18 178/35/18 179/37/18 83/38/18
f 83/38/19 179/37/19 180/39/19 84/40/19
f 84/40/20 180/39/20 181/41/20 85/42/20
f 85/42/21 181/41/21 182/43/21 86/44/21
f 86/44/22 182/43/22 183/45/22 87/46/22
f 87/46/23 183/45/23 184/47/23 88/48/23
f 88/48/24 184/47/24 185/49/24 89/50/24
f 89/50/25 185/49/25 186/51/25 90/52/25
f 90/52/26 186/51/26 187/53/26 91/54/26
f 91/54/27 187/53/27 188/55/27 92/56/27
f 92/56/28 188/55/28 189/57/28 93/58/28
f 93/58/29 189/57/29 190/59/29 94/60/29
f 94/60/30 190/59/30 191/61/30 95/62/30
f 62/63/14 60/64/14 222/64/14 223/63/14
f 95/62/31 191/61/31 192/65/31 96/66/31
f 96/66/32 192/65/32 162/67/32 65/68/32
f 17/69/33 19/70/33 106/70/33 105/69/33
f 3/71/34 1/72/34 65/73/34 66/74/34
f 5/75/34 3/71/34 66/74/34 67/76/34
f 7/77/34 5/75/34 67/76/34 68/78/34
f 9/79/34 7/77/34 68/78/34 69/80/34
f 11/81/34 9/79/34 69/80/34 70/82/34
f 13/83/34 11/81/34 70/82/34 71/84/34
f 15/85/34 13/83/34 71/84/34 72/86/34
f 17/69/34 15/85/34 72/86/34 73/87/34
f 19/70/34 17/69/34 73/87/34 74/88/34
f 21/89/34 19/70/34 74/88/34 75/90/34
f 23/91/34 21/89/34 75/90/34 76/92/34
f 25/93/34 23/91/34 76/92/34 77/94/34
f 27/95/34 25/93/34 77/94/34 78/96/34
f 29/97/34 27/95/34 78/96/34 79/98/34
f 31/99/34 29/97/34 79/98/34 80/100/34
f 33/101/34 31/99/34 80/100/34 81/102/34
f 35/103/34 33/101/34 81/102/34 82/104/34
f 37/105/34 35/103/34 82/104/34 83/106/34
f 39/107/34 37/105/34 83/106/34 84/108/34
f 41/109/34 39/107/34 84/108/34 85/110/34
f 43/111/34 41/109/34 85/110/34 86/112/34
f 45/113/34 43/111/34 86/112/34 87/114/34
f 47/115/34 45/113/34 87/114/34 88/116/34
f 49/117/34 47/115/34 88/116/34 89/118/34
f 51/119/34 49/117/34 89/118/34 90/120/34
f 53/121/34 51/119/34 90/120/34 91/122/34
f 55/123/34 53/121/34 91/122/34 92/124/34
f 57/125/34 55/123/34 92/124/34 93/126/34
f 59/127/34 57/125/34 93/126/34 94/128/34
f 61/129/34 59/127/34 94/128/34 95/130/34
f 63/131/34 61/129/34 95/130/34 96/132/34
f 1/72/34 63/131/34 96/132/34 65/73/34
f 99/75/19 100/77/19 132/77/19 131/75/19
f 45/113/33 47/115/33 120/115/33 119/113/33
f 19/70/33 21/89/33 107/89/33 106/70/33
f 47/115/33 49/117/33 121/117/33 120/115/33
f 21/89/33 23/91/33 108/91/33 107/89/33
f 49/117/33 51/119/33 122/119/33 121/117/33
f 23/91/33 25/93/33 109/93/33 108/91/33
f 51/119/33 53/121/33 123/121/33 122/119/33
f 25/93/33 27/95/33 110/95/33 109/93/33
f 53/121/33 55/123/33 124/123/33 123/121/33
f 27/95/33 29/97/33 111/97/33 110/95/33
f 1/72/33 3/71/33 98/71/33 97/72/33
f 55/123/33 57/125/33 125/125/33 124/123/33
f 29/97/33 31/99/33 112/99/33 111/97/33
f 3/71/33 5/75/33 99/75/33 98/71/33
f 57/125/33 59/127/33 126/127/33 125/125/33
f 31/99/33 33/101/33 113/101/33 112/99/33
f 5/75/33 7/77/33 100/77/33 99/75/33
f 59/127/33 61/129/33 127/129/33 126/127/33
f 33/101/33 35/103/33 114/103/33 113/101/33
f 7/77/33 9/79/33 101/79/33 100/77/33
f 61/129/33 63/131/33 128/131/33 127/129/33
f 35/103/33 37/105/33 115/105/33 114/103/33
f 9/79/33 11/81/33 102/81/33 101/79/33
f 63/131/33 1/72/33 97/72/33 128/131/33
f 37/105/33 39/107/33 116/107/33 115/105/33
f 11/81/33 13/83/33 103/83/33 102/81/33
f 39/107/33 41/109/33 117/109/33 116/107/33
f 13/83/33 15/85/33 104/85/33 103/83/33
f 41/109/33 43/111/33 118/111/33 117/109/33
f 15/85/33 17/69/33 105/69/33 104/85/33
f 43/111/33 45/113/33 119/113/33 118/111/33
f 129/72/34 130/71/34 131/75/34 132/77/34 133/79/34 134/81/34 135/83/34 136/85/34 137/69/34 138/70/34 139/89/34 140/91/34 141/93/34 142/95/34 143/97/34 144/99/34 145/101/34 146/103/34 147/105/34 148/107/34 149/109/34 150/111/34 151/113/34 152/115/34 153/117/34 154/119/34 155/121/34 156/123/34 157/125/34 158/127/34 159/129/34 160/131/34
f 126/127/14 127/129/14 159/129/14 158/127/14
f 113/101/1 114/103/1 146/103/1 145/101/1
f 100/77/20 101/79/20 133/79/20 132/77/20
f 127/129/15 128/131/15 160/131/15 159/129/15
f 114/103/2 115/105/2 147/105/2 146/103/2
f 101/79/21 102/81/21 134/81/21 133/79/21
f 128/131/16 97/72/16 129/72/16 160/131/16
f 115/105/3 116/107/3 148/107/3 147/105/3
f 102/81/22 103/83/22 135/83/22 134/81/22
f 116/107/4 117/109/4 149/109/4 148/107/4
f 103/83/23 104/85/23 136/85/23 135/83/23
f 117/109/5 118/111/5 150/111/5 149/109/5
f 104/85/24 105/69/24 137/69/24 136/85/24
f 118/111/6 119/113/6 151/113/6 150/111/6
f 105/69/25 106/70/25 138/70/25 137/69/25
f 119/113/7 120/115/7 152/115/7 151/113/7
f 106/70/26 107/89/26 139/89/26 138/70/26
f 120/115/8 121/117/8 153/117/8 152/115/8
f 107/89/27 108/91/27 140/91/27 139/89/27
f 121/117/9 122/119/9 154/119/9 153/117/9
f 108/91/28 109/93/28 141/93/28 140/91/28
f 122/119/10 123/121/10 155/121/10 154/119/10
f 109/93/29 110/95/29 142/95/29 141/93/29
f 123/121/11 124/123/11 156/123/11 155/121/11
f 110/95/30 111/97/30 143/97/30 142/95/30
f 97/72/17 98/71/17 130/71/17 129/72/17
f 124/123/12 125/125/12 157/125/12 156/123/12
f 111/97/31 112/99/31 144/99/31 143/97/31
f 98/71/18 99/75/18 131/75/18 130/71/18
f 125/125/13 126/127/13 158/127/13 157/125/13
f 112/99/32 113/101/32 145/101/32 144/99/32
f 2/133/35 4/134/35 161/135/35 162/136/35
f 4/134/35 6/137/35 163/138/35 161/135/35
f 6/137/35 8/139/35 164/140/35 163/138/35
f 8/139/35 10/141/35 165/142/35 164/140/35
f 10/141/35 12/143/35 166/144/35 165/142/35
f 12/143/35 14/145/35 167/146/35 166/144/35
f 14/145/35 16/147/35 168/148/35 167/146/35
f 16/147/35 18/149/35 169/150/35 168/148/35
f 18/149/35 20/151/35 170/152/35 169/150/35
f 20/151/35 22/153/35 171/154/35 170/152/35
f 22/153/35 24/155/35 172/156/35 171/154/35
f 24/155/35 26/157/35 173/158/35 172/156/35
f 26/157/35 28/159/35 174/160/35 173/158/35
f 28/159/35 30/161/35 175/162/35 174/160/35
f 30/161/35 32/163/35 176/164/35 175/162/35
f 32/163/35 34/165/35 177/166/35 176/164/35
f 34/165/35 36/167/35 178/168/35 177/166/35
f 36/167/35 38/169/35 179/170/35 178/168/35
f 38/169/35 40/171/35 180/172/35 179/170/35
f 40/171/35 42/173/35 181/174/35 180/172/35
f 42/173/35 44/175/35 182/176/35 181/174/35
f 44/175/35 46/177/35 183/178/35 182/176/35
f 46/177/35 48/179/35 184/180/35 183/178/35
f 48/179/35 50/181/35 185/182/35 184/180/35
f 50/181/35 52/183/35 186/184/35 185/182/35
f 52/183/35 54/185/35 187/186/35 186/184/35
f 54/185/35 56/187/35 188/188/35 187/186/35
f 56/187/35 58/189/35 189/190/35 188/188/35
f 58/189/35 60/64/35 190/191/35 189/190/35
f 60/64/35 62/63/35 191/192/35 190/191/35
f 62/63/35 64/193/35 192/194/35 191/192/35
f 64/193/35 2/133/35 162/136/35 192/194/35
f 194/134/35 193/133/35 224/193/35 223/63/35 222/64/35 221/189/35 220/187/35 219/185/35 218/183/35 217/181/35 216/179/35 215/177/35 214/175/35 213/173/35 212/171/35 211/169/35 210/167/35 209/165/35 208/163/35 207/161/35 206/159/35 205/157/35 204/155/35 203/153/35 202/151/35 201/149/35 200/147/35 199/145/35 198/143/35 197/141/35 196/139/35 195/137/35
f 36/167/1 34/165/1 209/165/1 210/167/1
f 10/141/20 8/139/20 196/139/20 197/141/20
f 64/193/15 62/63/15 223/63/15 224/193/15
f 38/169/2 36/167/2 210/167/2 211/169/2
f 12/143/21 10/141/21 197/141/21 198/143/21
f 2/133/16 64/193/16 224/193/16 193/133/16
f 40/171/3 38/169/3 211/169/3 212/171/3
f 14/145/22 12/143/22 198/143/22 199/145/22
f 42/173/4 40/171/4 212/171/4 213/173/4
f 16/147/23 14/145/23 199/145/23 200/147/23
f 44/175/5 42/173/5 213/173/5 214/175/5
f 18/149/24 16/147/24 200/147/24 201/149/24
f 46/177/6 44/175/6 214/175/6 215/177/6
f 20/151/25 18/149/25 201/149/25 202/151/25
f 48/179/7 46/177/7 215/177/7 216/179/7
f 22/153/26 20/151/26 202/151/26 203/153/26
f 50/181/8 48/179/8 216/179/8 217/181/8
f 24/155/27 22/153/27 203/153/27 204/155/27
f 52/183/9 50/181/9 217/181/9 218/183/9
f 26/157/28 24/155/28 204/155/28 205/157/28
f 54/185/10 52/183/10 218/183/10 219/185/10
f 28/159/29 26/157/29 205/157/29 206/159/29
f 56/187/11 54/185/11 219/185/11 220/187/11
f 30/161/30 28/159/30 206/159/30 207/161/30
f 4/134/17 2/133/17 193/133/17 194/134/17
f 58/189/12 56/187/12 220/187/12 221/189/12
f 32/163/31 30/161/31 207/161/31 208/163/31
f 6/137/18 4/134/18 194/134/18 195/137/18
f 60/64/13 58/189/13 221/189/13 222/64/13
f 34/165/32 32/163/32 208/163/32 209/165/32
f 8/139/19 6/137/19 195/137/19 196/139/19
