# Blender 4.1.1
# www.blender.org
mtllib çœ‹æ¿.mtl
o Cube
v -0.436986 1.014868 0.655615
v -0.436986 0.082646 0.655615
v -0.436986 1.014868 0.585019
v -0.436986 0.082646 0.585019
v 0.563598 1.014868 0.655615
v 0.563598 0.082646 0.655615
v 0.563598 1.014868 0.585019
v 0.563598 0.082646 0.585019
v 0.083688 -1.247470 0.753277
v 0.071521 -1.247470 0.752079
v 0.059823 -1.247470 0.748530
v 0.049041 -1.247470 0.742767
v 0.039591 -1.247470 0.735012
v 0.031835 -1.247470 0.725561
v 0.026072 -1.247470 0.714780
v 0.022524 -1.247470 0.703081
v 0.021325 -1.247470 0.690915
v 0.022524 -1.247470 0.678748
v 0.026072 -1.247470 0.667049
v 0.031835 -1.247470 0.656268
v 0.039591 -1.247470 0.646818
v 0.049041 -1.247470 0.639062
v 0.059823 -1.247470 0.633299
v 0.071521 -1.247470 0.629750
v 0.083688 -1.247470 0.628552
v 0.095854 -1.247470 0.629750
v 0.107553 -1.247470 0.633299
v 0.118335 -1.247470 0.639062
v 0.127785 -1.247470 0.646818
v 0.135540 -1.247470 0.656268
v 0.141303 -1.247470 0.667049
v 0.144852 -1.247470 0.678748
v 0.146050 -1.247470 0.690915
v 0.144852 -1.247470 0.703081
v 0.141303 -1.247470 0.714780
v 0.135540 -1.247470 0.725561
v 0.127785 -1.247470 0.735012
v 0.118335 -1.247470 0.742767
v 0.107553 -1.247470 0.748530
v 0.095854 -1.247470 0.752079
v 0.040485 1.014868 0.655615
v 0.119933 1.014868 0.655615
v 0.107553 1.024349 0.633299
v 0.095854 1.030003 0.629750
v 0.083688 1.031946 0.628552
v 0.071521 1.030095 0.629750
v 0.059823 1.024518 0.633299
v 0.040732 1.014868 0.585019
v 0.119089 1.014868 0.585019
v 0.083688 1.217573 0.738906
v 0.083688 1.203271 0.753277
v 0.074325 1.217573 0.737984
v 0.071521 1.203271 0.752079
v 0.065322 1.217573 0.735253
v 0.059823 1.203271 0.748530
v 0.057025 1.217573 0.730818
v 0.049041 1.203271 0.742767
v 0.049753 1.217573 0.724850
v 0.039591 1.203271 0.735012
v 0.043784 1.217573 0.717577
v 0.031835 1.203271 0.725561
v 0.039349 1.217573 0.709280
v 0.026072 1.203271 0.714780
v 0.036618 1.217573 0.700277
v 0.022524 1.203272 0.703081
v 0.035696 1.217573 0.690915
v 0.021325 1.203272 0.690915
v 0.036618 1.217573 0.681552
v 0.022524 1.203272 0.678748
v 0.039349 1.217573 0.672549
v 0.026072 1.203273 0.667049
v 0.043784 1.217573 0.664252
v 0.031835 1.203273 0.656268
v 0.049753 1.217573 0.656980
v 0.039591 1.203274 0.646818
v 0.057025 1.217573 0.651011
v 0.048438 1.203285 0.640229
v 0.065322 1.217573 0.646576
v 0.059823 1.203266 0.633299
v 0.074325 1.217573 0.643845
v 0.071521 1.203267 0.629750
v 0.083688 1.217573 0.642923
v 0.083688 1.203267 0.628552
v 0.093051 1.217573 0.643845
v 0.095854 1.203267 0.629750
v 0.102053 1.217573 0.646576
v 0.107553 1.203266 0.633299
v 0.110350 1.217573 0.651011
v 0.118447 1.203299 0.640228
v 0.117623 1.217573 0.656979
v 0.127785 1.203274 0.646818
v 0.123591 1.217573 0.664252
v 0.135540 1.203273 0.656268
v 0.128026 1.217573 0.672549
v 0.141303 1.203272 0.667049
v 0.130757 1.217573 0.681552
v 0.144852 1.203272 0.678748
v 0.131679 1.217573 0.690915
v 0.146050 1.203272 0.690915
v 0.130757 1.217573 0.700277
v 0.144852 1.203272 0.703081
v 0.128026 1.217573 0.709280
v 0.141303 1.203271 0.714780
v 0.123591 1.217573 0.717577
v 0.135540 1.203271 0.725561
v 0.117623 1.217573 0.724850
v 0.127785 1.203271 0.735012
v 0.110351 1.217573 0.730818
v 0.118335 1.203271 0.742767
v 0.102053 1.217573 0.735253
v 0.107553 1.203271 0.748530
v 0.093051 1.217573 0.737984
v 0.095854 1.203271 0.752079
vn -0.0000 1.0000 -0.0000
vn -0.0000 -0.0000 -1.0000
vn 1.0000 -0.0000 -0.0000
vn -0.0000 -1.0000 -0.0000
vn -1.0000 -0.0000 -0.0000
vn -0.0000 -0.0000 1.0000
vn 0.0980 -0.0000 0.9952
vn -0.4714 -0.0000 0.8819
vn -0.6344 -0.0000 0.7730
vn -0.7730 -0.0000 0.6344
vn -0.8819 -0.0000 0.4714
vn -0.9569 -0.0000 0.2903
vn -0.9952 -0.0000 0.0980
vn -0.9952 -0.0000 -0.0980
vn -0.9569 -0.0000 -0.2903
vn -0.8819 -0.0000 -0.4714
vn -0.7730 -0.0000 -0.6344
vn 0.1092 0.0003 -0.9940
vn -0.6868 -0.0156 -0.7266
vn -0.6821 0.0014 -0.7312
vn -0.2903 -0.0000 -0.9569
vn -0.0980 -0.0000 -0.9952
vn 0.0980 -0.0000 -0.9952
vn 0.2903 -0.0000 -0.9569
vn 0.7718 0.0020 -0.6359
vn 0.7730 -0.0000 -0.6344
vn 0.8819 -0.0000 -0.4714
vn 0.9569 -0.0000 -0.2903
vn 0.9952 -0.0000 -0.0980
vn 0.9952 -0.0000 0.0980
vn 0.9569 -0.0000 0.2903
vn 0.8819 -0.0000 0.4714
vn 0.7730 -0.0000 0.6344
vn 0.6344 -0.0000 0.7730
vn 0.4714 -0.0000 0.8819
vn 0.2903 -0.0000 0.9569
vn -0.0980 -0.0000 0.9952
vn -0.2903 -0.0000 0.9569
vn 0.7786 -0.0231 -0.6271
vn -0.0653 0.0002 -0.9979
vn -0.0693 0.7071 0.7037
vn -0.2052 0.7071 0.6767
vn -0.3333 0.7071 0.6236
vn -0.4486 0.7071 0.5466
vn -0.5466 0.7071 0.4486
vn -0.6236 0.7071 0.3333
vn -0.6766 0.7071 0.2053
vn -0.7037 0.7071 0.0693
vn -0.7037 0.7071 -0.0693
vn -0.6766 0.7072 -0.2052
vn -0.6236 0.7072 -0.3333
vn -0.5466 0.7072 -0.4485
vn -0.4390 0.7003 -0.5629
vn -0.3576 0.6981 -0.6203
vn -0.2053 0.7070 -0.6768
vn -0.0693 0.7070 -0.7038
vn 0.0693 0.7070 -0.7038
vn 0.2053 0.7070 -0.6768
vn 0.3654 0.6951 -0.6191
vn 0.4335 0.6963 -0.5720
vn 0.5466 0.7072 -0.4485
vn 0.6236 0.7072 -0.3333
vn 0.6766 0.7071 -0.2052
vn 0.7037 0.7071 -0.0693
vn 0.7037 0.7071 0.0693
vn 0.6766 0.7071 0.2053
vn 0.6236 0.7071 0.3333
vn 0.5466 0.7071 0.4486
vn 0.4486 0.7071 0.5466
vn 0.3333 0.7071 0.6236
vn 0.2053 0.7071 0.6767
vn 0.0693 0.7071 0.7037
vt 0.052936 0.929721
vt 0.805888 0.099705
vt 0.802639 0.708232
vt 0.512104 0.706680
vt 0.464450 0.706426
vt 0.194112 0.704983
vt 0.197361 0.096456
vt 0.058997 0.937566
s 0
usemtl Material
f 1/1/1 41/1/1 48/1/1 3/1/1
f 4/2/2 3/3/2 48/4/2 49/5/2 7/6/2 8/7/2
f 8/8/3 7/8/3 5/8/3 6/8/3
f 6/8/4 2/8/4 4/8/4 8/8/4
f 2/8/5 1/8/5 3/8/5 4/8/5
f 6/8/6 5/8/6 42/8/6 41/8/6 1/8/6 2/8/6
f 40/1/7 113/1/7 51/1/7 9/1/7
f 11/1/8 55/1/8 57/1/8 12/1/8
f 12/1/9 57/1/9 59/1/9 13/1/9
f 13/1/10 59/1/10 61/1/10 14/1/10
f 14/1/11 61/1/11 63/1/11 15/1/11
f 15/1/12 63/1/12 65/1/12 16/1/12
f 16/1/13 65/1/13 67/1/13 17/1/13
f 17/1/14 67/1/14 69/1/14 18/1/14
f 18/1/15 69/1/15 71/1/15 19/1/15
f 19/1/16 71/1/16 73/1/16 20/1/16
f 20/1/17 73/1/17 75/1/17 21/1/17
f 21/1/18 75/1/18 77/1/18 41/1/18 22/1/18
f 47/1/19 41/1/19 77/1/19 79/1/19
f 22/1/20 41/1/20 47/1/20 23/1/20
f 23/1/21 47/1/21 46/1/21 24/1/21
f 24/1/22 46/1/22 45/1/22 25/1/22
f 25/1/23 45/1/23 44/1/23 26/1/23
f 26/1/24 44/1/24 43/1/24 27/1/24
f 27/1/25 43/1/25 42/1/25 28/1/25
f 29/1/26 91/1/26 93/1/26 30/1/26
f 30/1/27 93/1/27 95/1/27 31/1/27
f 31/1/28 95/1/28 97/1/28 32/1/28
f 32/1/29 97/1/29 99/1/29 33/1/29
f 33/1/30 99/1/30 101/1/30 34/1/30
f 34/1/31 101/1/31 103/1/31 35/1/31
f 35/1/32 103/1/32 105/1/32 36/1/32
f 36/1/33 105/1/33 107/1/33 37/1/33
f 37/1/34 107/1/34 109/1/34 38/1/34
f 38/1/35 109/1/35 111/1/35 39/1/35
f 39/1/36 111/1/36 113/1/36 40/1/36
f 9/1/37 51/1/37 53/1/37 10/1/37
f 10/1/38 53/1/38 55/1/38 11/1/38
f 9/1/4 10/1/4 11/1/4 12/1/4 13/1/4 14/1/4 15/1/4 16/1/4 17/1/4 18/1/4 19/1/4 20/1/4 21/1/4 22/1/4 23/1/4 24/1/4 25/1/4 26/1/4 27/1/4 28/1/4 29/1/4 30/1/4 31/1/4 32/1/4 33/1/4 34/1/4 35/1/4 36/1/4 37/1/4 38/1/4 39/1/4 40/1/4
f 44/1/23 45/1/23 83/1/23 85/1/23
f 43/1/24 44/1/24 85/1/24 87/1/24
f 42/1/39 43/1/39 87/1/39 89/1/39
f 46/1/21 47/1/21 79/1/21 81/1/21
f 28/1/40 42/1/40 89/1/40 91/1/40 29/1/40
f 45/1/22 46/1/22 81/1/22 83/1/22
f 48/1/1 41/1/1 42/1/1
f 42/1/1 5/1/1 7/1/1 49/1/1
f 49/1/1 48/1/1 42/1/1
f 53/1/41 51/1/41 50/1/41 52/1/41
f 55/1/42 53/1/42 52/1/42 54/1/42
f 57/1/43 55/1/43 54/1/43 56/1/43
f 59/1/44 57/1/44 56/1/44 58/1/44
f 61/1/45 59/1/45 58/1/45 60/1/45
f 63/1/46 61/1/46 60/1/46 62/1/46
f 65/1/47 63/1/47 62/1/47 64/1/47
f 67/1/48 65/1/48 64/1/48 66/1/48
f 69/1/49 67/1/49 66/1/49 68/1/49
f 71/1/50 69/1/50 68/1/50 70/1/50
f 73/1/51 71/1/51 70/1/51 72/1/51
f 75/1/52 73/1/52 72/1/52 74/1/52
f 77/1/53 75/1/53 74/1/53 76/1/53
f 79/1/54 77/1/54 76/1/54 78/1/54
f 81/1/55 79/1/55 78/1/55 80/1/55
f 83/1/56 81/1/56 80/1/56 82/1/56
f 85/1/57 83/1/57 82/1/57 84/1/57
f 87/1/58 85/1/58 84/1/58 86/1/58
f 89/1/59 87/1/59 86/1/59 88/1/59
f 91/1/60 89/1/60 88/1/60 90/1/60
f 93/1/61 91/1/61 90/1/61 92/1/61
f 95/1/62 93/1/62 92/1/62 94/1/62
f 97/1/63 95/1/63 94/1/63 96/1/63
f 99/1/64 97/1/64 96/1/64 98/1/64
f 101/1/65 99/1/65 98/1/65 100/1/65
f 103/1/66 101/1/66 100/1/66 102/1/66
f 105/1/67 103/1/67 102/1/67 104/1/67
f 107/1/68 105/1/68 104/1/68 106/1/68
f 109/1/69 107/1/69 106/1/69 108/1/69
f 111/1/70 109/1/70 108/1/70 110/1/70
f 113/1/71 111/1/71 110/1/71 112/1/71
f 51/1/72 113/1/72 112/1/72 50/1/72
f 52/1/1 50/1/1 112/1/1 110/1/1 108/1/1 106/1/1 104/1/1 102/1/1 100/1/1 98/1/1 96/1/1 94/1/1 92/1/1 90/1/1 88/1/1 86/1/1 84/1/1 82/1/1 80/1/1 78/1/1 76/1/1 74/1/1 72/1/1 70/1/1 68/1/1 66/1/1 64/1/1 62/1/1 60/1/1 58/1/1 56/1/1 54/1/1
